<svg xmlns="http://www.w3.org/2000/svg" version="1.0" width="75mm" height="75mm" viewBox="0 0 75 75"><path fill="none" stroke="black" stroke-width="0.4" d="M 0,15 C 3 15.14 7.76 13.13 5.47 17.25 C 3.18 21.38 11.43 21.38 9.59 17.25 C 7.76 13.13 12 15.24 15 15 C 18 14.76 22.27 17.2 20.18 13.07 C 18.08 8.95 26.33 8.95 24.3 13.07 C 22.27 17.2 27 14.86 30 15 C 33 15.14 38.09 17.38 35.78 13.25 C 33.46 9.13 41.71 9.13 39.9 13.25 C 38.09 17.38 42 14.99 45 15 C 48 15.01 52.12 16.71 50.08 12.59 C 48.05 8.46 56.3 8.46 54.21 12.59 C 52.12 16.71 57 15.2 60 15 C 63 14.8 67.41 13.04 65.41 17.16 C 63.42 21.29 71.67 21.29 69.54 17.16 C 67.41 13.04 72 15.15 75 15 M 0,30 C 3 30.3 6.98 27.84 5.21 31.96 C 3.44 36.09 11.69 36.09 9.33 31.96 C 6.98 27.84 12 30.17 15 30 C 18 29.83 22.38 32.09 20.25 27.97 C 18.13 23.84 26.38 23.84 24.38 27.97 C 22.38 32.09 27 29.79 30 30 C 33 30.21 37.3 28.31 35.42 32.43 C 33.55 36.56 41.8 36.56 39.55 32.43 C 37.3 28.31 42 29.74 45 30 C 48 30.26 51.88 32.22 50.17 28.09 C 48.45 23.97 56.7 23.97 54.29 28.09 C 51.88 32.22 57 29.84 60 30 C 63 30.16 67.41 32.26 65.39 28.14 C 63.37 24.01 71.62 24.01 69.52 28.14 C 67.41 32.26 72 29.96 75 30 M 0,45 C 3 45.22 7.53 43.01 5.62 47.13 C 3.72 51.26 11.97 51.26 9.75 47.13 C 7.53 43.01 12 44.68 15 45 C 18 45.32 22.05 46.9 20.28 42.78 C 18.51 38.65 26.76 38.65 24.41 42.78 C 22.05 46.9 27 44.94 30 45 C 33 45.06 37.35 47.11 35.12 42.98 C 32.88 38.86 41.13 38.86 39.24 42.98 C 37.35 47.11 42 45.26 45 45 C 48 44.74 52.41 42.94 50.25 47.06 C 48.1 51.19 56.35 51.19 54.38 47.06 C 52.41 42.94 57 45.3 60 45 C 63 44.7 67.37 42.85 65.57 46.97 C 63.78 51.1 72.03 51.1 69.7 46.97 C 67.37 42.85 72 45.17 75 45 M 0,60 C 3 59.66 7.55 57.92 5.52 62.04 C 3.5 66.17 11.75 66.17 9.65 62.04 C 7.55 57.92 12 60.23 15 60 C 18 59.77 22.09 58.16 20.17 62.29 C 18.25 66.41 26.5 66.41 24.3 62.29 C 22.09 58.16 27 59.7 30 60 C 33 60.3 36.95 58.14 35.07 62.26 C 33.18 66.39 41.43 66.39 39.19 62.26 C 36.95 58.14 42 60.29 45 60 C 48 59.71 51.83 62.19 50.13 58.07 C 48.43 53.94 56.68 53.94 54.26 58.07 C 51.83 62.19 57 59.78 60 60 C 63 60.22 67.34 57.69 65.24 61.82 C 63.15 65.94 71.4 65.94 69.37 61.82 C 67.34 57.69 72 60.1 75 60 M 15,0 C 15.18 3 12.98 7.8 17.1 5.77 C 21.23 3.74 21.23 11.99 17.1 9.9 C 12.98 7.8 15.22 12 15 15 C 14.78 18 12.85 22.72 16.98 20.47 C 21.1 18.21 21.1 26.46 16.98 24.59 C 12.85 22.72 15.12 27 15 30 C 14.88 33 17.42 37.81 13.3 35.48 C 9.17 33.15 9.17 41.4 13.3 39.61 C 17.42 37.81 14.7 42 15 45 C 15.3 48 17.18 52.63 13.05 50.49 C 8.93 48.36 8.93 56.61 13.05 54.62 C 17.18 52.63 14.85 57 15 60 C 15.15 63 13.11 67.38 17.23 65.33 C 21.36 63.27 21.36 71.52 17.23 69.45 C 13.11 67.38 15.27 72 15 75 M 30,0 C 29.89 3 27.63 7.03 31.76 5.21 C 35.88 3.4 35.88 11.65 31.76 9.34 C 27.63 7.03 30.3 12 30 15 C 29.7 18 27.71 22.83 31.83 20.65 C 35.96 18.47 35.96 26.72 31.83 24.77 C 27.71 22.83 30.37 27 30 30 C 29.63 33 27.86 37.37 31.99 35.4 C 36.11 33.44 36.11 41.69 31.99 39.53 C 27.86 37.37 29.95 42 30 45 C 30.05 48 31.69 52.85 27.56 50.77 C 23.44 48.69 23.44 56.94 27.56 54.9 C 31.69 52.85 29.71 57 30 60 C 30.29 63 28.04 67.59 32.16 65.34 C 36.29 63.1 36.29 71.35 32.16 69.47 C 28.04 67.59 30.03 72 30 75 M 45,0 C 44.76 3 42.81 6.9 46.94 5.22 C 51.06 3.53 51.06 11.78 46.94 9.34 C 42.81 6.9 44.83 12 45 15 C 45.17 18 43.15 22.8 47.28 20.46 C 51.4 18.13 51.4 26.38 47.28 24.59 C 43.15 22.8 44.78 27 45 30 C 45.22 33 47.38 37.24 43.25 35.51 C 39.13 33.78 39.13 42.03 43.25 39.64 C 47.38 37.24 44.97 42 45 45 C 45.03 48 46.88 52.51 42.75 50.77 C 38.63 49.04 38.63 57.29 42.75 54.9 C 46.88 52.51 45.03 57 45 60 C 44.97 63 43.3 67.07 47.42 65.24 C 51.55 63.41 51.55 71.66 47.42 69.37 C 43.3 67.07 44.95 72 45 75 M 60,0 C 59.65 3 58.26 7.53 62.39 5.62 C 66.51 3.71 66.51 11.96 62.39 9.75 C 58.26 7.53 60.23 12 60 15 C 59.77 18 62.09 22.34 57.97 20.53 C 53.84 18.72 53.84 26.97 57.97 24.66 C 62.09 22.34 59.73 27 60 30 C 60.27 33 57.69 37.35 61.82 35.2 C 65.94 33.06 65.94 41.31 61.82 39.33 C 57.69 37.35 60.11 42 60 45 C 59.89 48 58.12 52.4 62.24 50.3 C 66.37 48.2 66.37 56.45 62.24 54.42 C 58.12 52.4 60.37 57 60 60 C 59.63 63 57.95 67.34 62.07 65.45 C 66.2 63.57 66.2 71.82 62.07 69.58 C 57.95 67.34 59.83 72 60 75 M 2 0 L 73 0 A 2 2 0 0 1 75 2 L 75 73 A 2 2 0 0 1 73 75 L 2 75 A 2 2 0 0 1 0 73 L 0 2 A 2 2 0 0 1 2 0 "></path></svg>