<svg xmlns="http://www.w3.org/2000/svg" version="1.0" width="225mm" height="225mm" viewBox="0 0 225 225"><path fill="none" stroke="black" stroke-width="0.4" d="M 0,15 C 3 14.86 7.76 13.13 5.47 17.25 C 3.18 21.38 11.43 21.38 9.59 17.25 C 7.76 13.13 12 15.24 15 15 C 18 14.76 22.27 17.2 20.18 13.07 C 18.08 8.95 26.33 8.95 24.3 13.07 C 22.27 17.2 27 14.86 30 15 C 33 15.14 38.09 17.38 35.78 13.25 C 33.46 9.13 41.71 9.13 39.9 13.25 C 38.09 17.38 42 14.99 45 15 C 48 15.01 52.12 16.71 50.08 12.59 C 48.05 8.46 56.3 8.46 54.21 12.59 C 52.12 16.71 57 15.2 60 15 C 63 14.8 67.41 13.04 65.41 17.16 C 63.42 21.29 71.67 21.29 69.54 17.16 C 67.41 13.04 72 15.15 75 15 C 78 14.85 82.57 17.34 80.61 13.22 C 78.65 9.09 86.9 9.09 84.74 13.22 C 82.57 17.34 87 15.27 90 15 C 93 14.73 97.25 17.29 95.29 13.17 C 93.32 9.04 101.57 9.04 99.41 13.17 C 97.25 17.29 102 15.29 105 15 C 108 14.71 112.78 17.25 110.75 13.12 C 108.71 9 116.96 9 114.87 13.12 C 112.78 17.25 117 14.94 120 15 C 123 15.06 127.84 17.08 125.41 12.95 C 122.97 8.83 131.22 8.83 129.53 12.95 C 127.84 17.08 132 15.18 135 15 C 138 14.82 142.43 12.67 140.52 16.79 C 138.62 20.92 146.87 20.92 144.65 16.79 C 142.43 12.67 147 14.65 150 15 C 153 15.35 157.47 17.11 155.61 12.98 C 153.74 8.86 161.99 8.86 159.73 12.98 C 157.47 17.11 162 15.04 165 15 C 168 14.96 172.11 16.82 170.14 12.7 C 168.18 8.57 176.43 8.57 174.27 12.7 C 172.11 16.82 177 14.92 180 15 C 183 15.08 187.46 12.77 185.21 16.89 C 182.96 21.02 191.21 21.02 189.34 16.89 C 187.46 12.77 192 15.07 195 15 C 198 14.93 202.02 13.14 200.11 17.26 C 198.21 21.39 206.46 21.39 204.24 17.26 C 202.02 13.14 207 15.16 210 15 C 213 14.84 217.24 13.04 215.5 17.16 C 213.76 21.29 222.01 21.29 219.63 17.16 C 217.24 13.04 222 14.96 225 15 M 0,30 C 3 30.09 7.38 31.93 5.41 27.8 C 3.44 23.68 11.69 23.68 9.53 27.8 C 7.38 31.93 12 30.27 15 30 C 18 29.73 22.89 32.14 20.57 28.01 C 18.25 23.89 26.5 23.89 24.7 28.01 C 22.89 32.14 27 29.94 30 30 C 33 30.06 37.24 32.43 35.1 28.3 C 32.95 24.18 41.2 24.18 39.22 28.3 C 37.24 32.43 42 30.02 45 30 C 48 29.98 52.46 27.57 50.67 31.7 C 48.87 35.82 57.12 35.82 54.79 31.7 C 52.46 27.57 57 30.23 60 30 C 63 29.77 66.83 27.76 65.14 31.88 C 63.45 36.01 71.7 36.01 69.27 31.88 C 66.83 27.76 72 30.2 75 30 C 78 29.8 82.48 27.99 80.72 32.11 C 78.96 36.24 87.21 36.24 84.85 32.11 C 82.48 27.99 87 29.87 90 30 C 93 30.13 97.52 27.94 95.65 32.06 C 93.78 36.19 102.03 36.19 99.78 32.06 C 97.52 27.94 102 29.76 105 30 C 108 30.24 112.35 31.78 110.54 27.65 C 108.72 23.53 116.97 23.53 114.66 27.65 C 112.35 31.78 117 30.32 120 30 C 123 29.68 127.62 28.12 125.6 32.24 C 123.58 36.37 131.83 36.37 129.72 32.24 C 127.62 28.12 132 30.33 135 30 C 138 29.67 142.23 31.84 140.41 27.72 C 138.58 23.59 146.83 23.59 144.53 27.72 C 142.23 31.84 147 29.97 150 30 C 153 30.03 157.78 28.05 155.63 32.18 C 153.48 36.3 161.73 36.3 159.75 32.18 C 157.78 28.05 162 30.04 165 30 C 168 29.96 172.85 28.24 170.71 32.37 C 168.56 36.49 176.81 36.49 174.83 32.37 C 172.85 28.24 177 30.05 180 30 C 183 29.95 187.35 28.09 185.51 32.21 C 183.68 36.34 191.93 36.34 189.64 32.21 C 187.35 28.09 192 29.89 195 30 C 198 30.11 202.6 31.8 200.43 27.67 C 198.26 23.55 206.51 23.55 204.55 27.67 C 202.6 31.8 207 30.04 210 30 C 213 29.96 217.74 31.78 215.79 27.66 C 213.85 23.53 222.1 23.53 219.92 27.66 C 217.74 31.78 222 30.28 225 30 M 0,45 C 3 44.79 7.37 43.31 5.56 47.43 C 3.74 51.56 11.99 51.56 9.68 47.43 C 7.37 43.31 12 44.96 15 45 C 18 45.04 22.61 42.89 20.34 47.02 C 18.07 51.14 26.32 51.14 24.46 47.02 C 22.61 42.89 27 45.33 30 45 C 33 44.67 37.24 46.77 35.46 42.64 C 33.67 38.52 41.92 38.52 39.58 42.64 C 37.24 46.77 42 45.1 45 45 C 48 44.9 52.44 47.04 50.62 42.91 C 48.8 38.79 57.05 38.79 54.74 42.91 C 52.44 47.04 57 44.95 60 45 C 63 45.05 67.51 46.83 65.21 42.7 C 62.91 38.58 71.16 38.58 69.33 42.7 C 67.51 46.83 72 45.26 75 45 C 78 44.74 82.2 42.56 80.31 46.69 C 78.43 50.81 86.68 50.81 84.44 46.69 C 82.2 42.56 87 44.82 90 45 C 93 45.18 97.5 46.79 95.65 42.67 C 93.81 38.54 102.06 38.54 99.78 42.67 C 97.5 46.79 102 44.72 105 45 C 108 45.28 112.22 47.4 110.12 43.27 C 108.03 39.15 116.28 39.15 114.25 43.27 C 112.22 47.4 117 44.96 120 45 C 123 45.04 127.65 47.39 125.62 43.26 C 123.59 39.14 131.84 39.14 129.75 43.26 C 127.65 47.39 132 45.08 135 45 C 138 44.92 142.81 42.71 140.8 46.83 C 138.79 50.96 147.04 50.96 144.92 46.83 C 142.81 42.71 147 44.95 150 45 C 153 45.05 157.18 42.72 155.37 46.84 C 153.55 50.97 161.8 50.97 159.49 46.84 C 157.18 42.72 162 45.35 165 45 C 168 44.65 172.53 43.26 170.62 47.39 C 168.71 51.51 176.96 51.51 174.75 47.39 C 172.53 43.26 177 45.23 180 45 C 183 44.77 187.34 47.09 185.53 42.97 C 183.72 38.84 191.97 38.84 189.66 42.97 C 187.34 47.09 192 44.73 195 45 C 198 45.27 202.35 42.69 200.2 46.82 C 198.06 50.94 206.31 50.94 204.33 46.82 C 202.35 42.69 207 45.11 210 45 C 213 44.89 217.4 43.12 215.3 47.24 C 213.2 51.37 221.45 51.37 219.42 47.24 C 217.4 43.12 222 45.37 225 45 M 0,60 C 3 60.02 7.83 61.74 5.68 57.61 C 3.54 53.49 11.79 53.49 9.81 57.61 C 7.83 61.74 12 59.84 15 60 C 18 60.16 22.93 62.09 20.53 57.97 C 18.12 53.84 26.37 53.84 24.65 57.97 C 22.93 62.09 27 60.31 30 60 C 33 59.69 37.51 58.14 35.52 62.26 C 33.52 66.39 41.77 66.39 39.64 62.26 C 37.51 58.14 42 60.29 45 60 C 48 59.71 52.54 61.94 50.18 57.81 C 47.82 53.69 56.07 53.69 54.31 57.81 C 52.54 61.94 57 60.32 60 60 C 63 59.68 67.33 62.26 65.51 58.14 C 63.69 54.01 71.94 54.01 69.63 58.14 C 67.33 62.26 72 59.8 75 60 C 78 60.2 82.88 61.98 80.53 57.85 C 78.18 53.73 86.43 53.73 84.65 57.85 C 82.88 61.98 87 59.86 90 60 C 93 60.14 98.19 57.58 95.76 61.7 C 93.33 65.83 101.58 65.83 99.89 61.7 C 98.19 57.58 102 59.88 105 60 C 108 60.12 112.58 57.69 110.29 61.81 C 108 65.94 116.25 65.94 114.42 61.81 C 112.58 57.69 117 59.97 120 60 C 123 60.03 127.27 61.8 125.22 57.68 C 123.18 53.55 131.43 53.55 129.35 57.68 C 127.27 61.8 132 60.22 135 60 C 138 59.78 142.57 57.72 140.27 61.84 C 137.97 65.97 146.22 65.97 144.39 61.84 C 142.57 57.72 147 60.03 150 60 C 153 59.97 157.31 58.21 155.36 62.33 C 153.41 66.46 161.66 66.46 159.48 62.33 C 157.31 58.21 162 59.96 165 60 C 168 60.04 172.69 62.06 170.33 57.94 C 167.97 53.81 176.22 53.81 174.45 57.94 C 172.69 62.06 177 59.73 180 60 C 183 60.27 187.44 61.83 185.12 57.7 C 182.8 53.58 191.05 53.58 189.25 57.7 C 187.44 61.83 192 59.79 195 60 C 198 60.21 203.14 57.91 200.76 62.03 C 198.38 66.16 206.63 66.16 204.89 62.03 C 203.14 57.91 207 59.82 210 60 C 213 60.18 217.7 62.37 215.78 58.25 C 213.86 54.12 222.11 54.12 219.9 58.25 C 217.7 62.37 222 60.1 225 60 M 0,75 C 3 74.99 7.73 73.09 5.53 77.22 C 3.32 81.34 11.57 81.34 9.65 77.22 C 7.73 73.09 12 75.18 15 75 C 18 74.82 21.97 72.83 20.08 76.95 C 18.19 81.08 26.44 81.08 24.21 76.95 C 21.97 72.83 27 75.1 30 75 C 33 74.9 36.92 76.77 35.08 72.64 C 33.24 68.52 41.49 68.52 39.21 72.64 C 36.92 76.77 42 75.22 45 75 C 48 74.78 52.67 76.91 50.69 72.78 C 48.7 68.66 56.95 68.66 54.81 72.78 C 52.67 76.91 57 75.26 60 75 C 63 74.74 67.52 77.28 65.43 73.16 C 63.34 69.03 71.59 69.03 69.55 73.16 C 67.52 77.28 72 75.25 75 75 C 78 74.75 82.15 76.79 80.08 72.66 C 78.01 68.54 86.26 68.54 84.2 72.66 C 82.15 76.79 87 74.66 90 75 C 93 75.34 96.93 76.92 95.08 72.8 C 93.24 68.67 101.49 68.67 99.21 72.8 C 96.93 76.92 102 74.68 105 75 C 108 75.32 112.52 77.36 110.12 73.24 C 107.72 69.11 115.97 69.11 114.24 73.24 C 112.52 77.36 117 75 120 75 C 123 75 127.41 73.29 125.64 77.41 C 123.86 81.54 132.11 81.54 129.76 77.41 C 127.41 73.29 132 74.98 135 75 C 138 75.02 142.62 76.94 140.28 72.81 C 137.94 68.69 146.19 68.69 144.4 72.81 C 142.62 76.94 147 74.88 150 75 C 153 75.12 156.93 72.9 155.18 77.02 C 153.44 81.15 161.69 81.15 159.31 77.02 C 156.93 72.9 162 74.9 165 75 C 168 75.1 172.84 72.95 170.5 77.08 C 168.16 81.2 176.41 81.2 174.63 77.08 C 172.84 72.95 177 74.91 180 75 C 183 75.09 186.87 76.74 185.11 72.61 C 183.35 68.49 191.6 68.49 189.23 72.61 C 186.87 76.74 192 74.84 195 75 C 198 75.16 203.16 76.71 200.79 72.59 C 198.42 68.46 206.67 68.46 204.91 72.59 C 203.16 76.71 207 74.74 210 75 C 213 75.26 217.06 77.26 215.13 73.13 C 213.21 69.01 221.46 69.01 219.26 73.13 C 217.06 77.26 222 75.31 225 75 M 0,90 C 3 89.65 7.56 91.99 5.47 87.87 C 3.38 83.74 11.63 83.74 9.6 87.87 C 7.56 91.99 12 90.17 15 90 C 18 89.83 22.38 87.92 20.13 92.04 C 17.88 96.17 26.13 96.17 24.26 92.04 C 22.38 87.92 27 89.8 30 90 C 33 90.2 37.64 91.8 35.54 87.67 C 33.44 83.55 41.69 83.55 39.67 87.67 C 37.64 91.8 42 89.93 45 90 C 48 90.07 52.8 92.43 50.54 88.3 C 48.29 84.18 56.54 84.18 54.67 88.3 C 52.8 92.43 57 89.95 60 90 C 63 90.05 67.55 87.64 65.37 91.77 C 63.19 95.89 71.44 95.89 69.49 91.77 C 67.55 87.64 72 90.02 75 90 C 78 89.98 82.26 91.83 80.16 87.71 C 78.07 83.58 86.32 83.58 84.29 87.71 C 82.26 91.83 87 90.22 90 90 C 93 89.78 97.31 88.19 95.27 92.32 C 93.22 96.44 101.47 96.44 99.39 92.32 C 97.31 88.19 102 89.99 105 90 C 108 90.01 112.48 92.13 110.13 88 C 107.77 83.88 116.02 83.88 114.25 88 C 112.48 92.13 117 90.09 120 90 C 123 89.91 128.23 88.09 125.8 92.22 C 123.36 96.34 131.61 96.34 129.92 92.22 C 128.23 88.09 132 90.11 135 90 C 138 89.89 142.71 91.72 140.5 87.59 C 138.29 83.47 146.54 83.47 144.63 87.59 C 142.71 91.72 147 89.79 150 90 C 153 90.21 157.92 87.57 155.8 91.7 C 153.69 95.82 161.94 95.82 159.93 91.7 C 157.92 87.57 162 90.14 165 90 C 168 89.86 172.87 87.88 170.72 92 C 168.56 96.13 176.81 96.13 174.84 92 C 172.87 87.88 177 90.23 180 90 C 183 89.77 187.91 87.76 185.63 91.89 C 183.36 96.01 191.61 96.01 189.76 91.89 C 187.91 87.76 192 89.63 195 90 C 198 90.37 201.97 92.37 200.21 88.24 C 198.45 84.12 206.7 84.12 204.33 88.24 C 201.97 92.37 207 90.32 210 90 C 213 89.68 218.13 87.62 215.72 91.75 C 213.31 95.87 221.56 95.87 219.84 91.75 C 218.13 87.62 222 89.95 225 90 M 0,105 C 3 105.17 7.39 107.02 5.47 102.89 C 3.54 98.77 11.79 98.77 9.59 102.89 C 7.39 107.02 12 105.25 15 105 C 18 104.75 22.36 107.17 20.18 103.05 C 18 98.92 26.25 98.92 24.31 103.05 C 22.36 107.17 27 105.03 30 105 C 33 104.97 36.85 102.74 35.15 106.86 C 33.45 110.99 41.7 110.99 39.28 106.86 C 36.85 102.74 42 105.33 45 105 C 48 104.67 52.16 103.19 50.31 107.32 C 48.47 111.44 56.72 111.44 54.44 107.32 C 52.16 103.19 57 105.14 60 105 C 63 104.86 67.18 107.42 65.22 103.29 C 63.26 99.17 71.51 99.17 69.34 103.29 C 67.18 107.42 72 104.88 75 105 C 78 105.12 81.95 107.38 80.2 103.26 C 78.45 99.13 86.7 99.13 84.33 103.26 C 81.95 107.38 87 104.85 90 105 C 93 105.15 97.55 107 95.65 102.88 C 93.74 98.75 101.99 98.75 99.77 102.88 C 97.55 107 102 104.7 105 105 C 108 105.3 112.53 102.96 110.29 107.08 C 108.05 111.21 116.3 111.21 114.41 107.08 C 112.53 102.96 117 105.02 120 105 C 123 104.98 128.09 102.69 125.71 106.82 C 123.32 110.94 131.57 110.94 129.83 106.82 C 128.09 102.69 132 105.35 135 105 C 138 104.65 142.32 107.29 140.5 103.17 C 138.67 99.04 146.92 99.04 144.62 103.17 C 142.32 107.29 147 104.94 150 105 C 153 105.06 157.38 102.61 155.53 106.74 C 153.69 110.86 161.94 110.86 159.66 106.74 C 157.38 102.61 162 105.33 165 105 C 168 104.67 172.52 106.78 170.61 102.66 C 168.7 98.53 176.95 98.53 174.74 102.66 C 172.52 106.78 177 104.75 180 105 C 183 105.25 187.09 107.39 185.18 103.26 C 183.28 99.14 191.53 99.14 189.31 103.26 C 187.09 107.39 192 105.31 195 105 C 198 104.69 202.52 103.03 200.28 107.15 C 198.05 111.28 206.3 111.28 204.41 107.15 C 202.52 103.03 207 105.01 210 105 C 213 104.99 217.47 107.26 215.28 103.14 C 213.09 99.01 221.34 99.01 219.41 103.14 C 217.47 107.26 222 105.17 225 105 M 0,120 C 3 119.83 8.06 122.37 5.64 118.24 C 3.23 114.12 11.48 114.12 9.77 118.24 C 8.06 122.37 12 119.71 15 120 C 18 120.29 22.55 122.3 20.12 118.18 C 17.68 114.05 25.93 114.05 24.24 118.18 C 22.55 122.3 27 120.08 30 120 C 33 119.92 37.47 117.79 35.13 121.91 C 32.79 126.04 41.04 126.04 39.26 121.91 C 37.47 117.79 42 119.93 45 120 C 48 120.07 52.46 122 50.69 117.87 C 48.92 113.75 57.17 113.75 54.81 117.87 C 52.46 122 57 120.15 60 120 C 63 119.85 67.69 122.17 65.8 118.04 C 63.91 113.92 72.16 113.92 69.92 118.04 C 67.69 122.17 72 119.84 75 120 C 78 120.16 82.9 121.85 80.53 117.72 C 78.16 113.6 86.41 113.6 84.66 117.72 C 82.9 121.85 87 119.91 90 120 C 93 120.09 97.04 117.74 95.08 121.87 C 93.13 125.99 101.38 125.99 99.21 121.87 C 97.04 117.74 102 120.1 105 120 C 108 119.9 112.25 117.65 110.17 121.78 C 108.09 125.9 116.34 125.9 114.3 121.78 C 112.25 117.65 117 119.84 120 120 C 123 120.16 128.04 117.69 125.64 121.82 C 123.25 125.94 131.5 125.94 129.77 121.82 C 128.04 117.69 132 119.99 135 120 C 138 120.01 142.2 118.3 140.38 122.42 C 138.55 126.55 146.8 126.55 144.5 122.42 C 142.2 118.3 147 120.23 150 120 C 153 119.77 157.71 121.91 155.29 117.79 C 152.87 113.66 161.12 113.66 159.42 117.79 C 157.71 121.91 162 119.81 165 120 C 168 120.19 172.94 122.13 170.76 118.01 C 168.58 113.88 176.83 113.88 174.88 118.01 C 172.94 122.13 177 120.09 180 120 C 183 119.91 187.73 118.15 185.35 122.28 C 182.97 126.4 191.22 126.4 189.48 122.28 C 187.73 118.15 192 119.8 195 120 C 198 120.2 202.84 122.06 200.76 117.93 C 198.67 113.81 206.92 113.81 204.88 117.93 C 202.84 122.06 207 120.33 210 120 C 213 119.67 217.26 121.72 215.55 117.6 C 213.83 113.47 222.08 113.47 219.67 117.6 C 217.26 121.72 222 120.2 225 120 M 0,135 C 3 134.76 7.89 137.14 5.51 133.02 C 3.13 128.89 11.38 128.89 9.63 133.02 C 7.89 137.14 12 134.93 15 135 C 18 135.07 22.24 137.13 20.33 133.01 C 18.42 128.88 26.67 128.88 24.45 133.01 C 22.24 137.13 27 135.05 30 135 C 33 134.95 38.06 133.22 35.64 137.35 C 33.21 141.47 41.46 141.47 39.76 137.35 C 38.06 133.22 42 134.88 45 135 C 48 135.12 52.55 137.09 50.27 132.96 C 47.99 128.84 56.24 128.84 54.39 132.96 C 52.55 137.09 57 134.99 60 135 C 63 135.01 67.51 132.69 65.3 136.81 C 63.09 140.94 71.34 140.94 69.43 136.81 C 67.51 132.69 72 134.92 75 135 C 78 135.08 82.34 136.96 80.55 132.84 C 78.75 128.71 87 128.71 84.67 132.84 C 82.34 136.96 87 134.99 90 135 C 93 135.01 97.6 132.75 95.58 136.88 C 93.55 141 101.8 141 99.7 136.88 C 97.6 132.75 102 135.08 105 135 C 108 134.92 112.51 133.07 110.48 137.2 C 108.46 141.32 116.71 141.32 114.61 137.2 C 112.51 133.07 117 135.24 120 135 C 123 134.76 127.72 136.73 125.4 132.61 C 123.09 128.48 131.34 128.48 129.53 132.61 C 127.72 136.73 132 134.96 135 135 C 138 135.04 142.2 137.11 140.26 132.98 C 138.32 128.86 146.57 128.86 144.39 132.98 C 142.2 137.11 147 135.09 150 135 C 153 134.91 157.05 136.91 155.29 132.78 C 153.54 128.66 161.79 128.66 159.42 132.78 C 157.05 136.91 162 134.93 165 135 C 168 135.07 172.6 136.83 170.72 132.7 C 168.84 128.58 177.09 128.58 174.85 132.7 C 172.6 136.83 177 134.79 180 135 C 183 135.21 186.92 133.07 185.17 137.2 C 183.42 141.32 191.67 141.32 189.3 137.2 C 186.92 133.07 192 135.25 195 135 C 198 134.75 202.48 133.26 200.31 137.38 C 198.13 141.51 206.38 141.51 204.43 137.38 C 202.48 133.26 207 135.21 210 135 C 213 134.79 216.94 132.95 215.16 137.08 C 213.39 141.2 221.64 141.2 219.29 137.08 C 216.94 132.95 222 135.14 225 135 M 0,150 C 3 150.22 7.39 151.96 5.54 147.83 C 3.7 143.71 11.95 143.71 9.67 147.83 C 7.39 151.96 12 149.73 15 150 C 18 150.27 21.95 152.27 20.17 148.14 C 18.38 144.02 26.63 144.02 24.29 148.14 C 21.95 152.27 27 149.72 30 150 C 33 150.28 37.95 151.81 35.8 147.68 C 33.65 143.56 41.9 143.56 39.92 147.68 C 37.95 151.81 42 150.22 45 150 C 48 149.78 52.69 152.32 50.31 148.19 C 47.93 144.07 56.18 144.07 54.43 148.19 C 52.69 152.32 57 149.73 60 150 C 63 150.27 67.43 147.6 65.09 151.73 C 62.74 155.85 70.99 155.85 69.21 151.73 C 67.43 147.6 72 150.24 75 150 C 78 149.76 82.79 151.91 80.59 147.78 C 78.38 143.66 86.63 143.66 84.71 147.78 C 82.79 151.91 87 149.78 90 150 C 93 150.22 97.17 147.7 95.21 151.82 C 93.25 155.95 101.5 155.95 99.34 151.82 C 97.17 147.7 102 150.15 105 150 C 108 149.85 112.46 148.09 110.6 152.22 C 108.75 156.34 117 156.34 114.73 152.22 C 112.46 148.09 117 149.73 120 150 C 123 150.27 127.25 152.05 125.55 147.92 C 123.85 143.8 132.1 143.8 129.67 147.92 C 127.25 152.05 132 150.26 135 150 C 138 149.74 142.26 148.05 140.41 152.18 C 138.57 156.3 146.82 156.3 144.54 152.18 C 142.26 148.05 147 149.77 150 150 C 153 150.23 157.32 148.01 155.52 152.14 C 153.72 156.26 161.97 156.26 159.65 152.14 C 157.32 148.01 162 150.09 165 150 C 168 149.91 172.03 152 170.26 147.88 C 168.49 143.75 176.74 143.75 174.39 147.88 C 172.03 152 177 149.88 180 150 C 183 150.12 188.04 147.98 185.71 152.1 C 183.37 156.23 191.62 156.23 189.83 152.1 C 188.04 147.98 192 149.9 195 150 C 198 150.1 202.68 152.36 200.62 148.23 C 198.56 144.11 206.81 144.11 204.74 148.23 C 202.68 152.36 207 149.76 210 150 C 213 150.24 217.67 147.79 215.57 151.91 C 213.48 156.04 221.73 156.04 219.7 151.91 C 217.67 147.79 222 150.37 225 150 M 0,165 C 3 165.15 7.74 163.22 5.6 167.34 C 3.46 171.47 11.71 171.47 9.72 167.34 C 7.74 163.22 12 165.08 15 165 C 18 164.92 22.63 162.77 20.81 166.9 C 18.98 171.02 27.23 171.02 24.93 166.9 C 22.63 162.77 27 164.84 30 165 C 33 165.16 37.8 166.93 35.41 162.8 C 33.01 158.68 41.26 158.68 39.53 162.8 C 37.8 166.93 42 164.81 45 165 C 48 165.19 52.5 162.69 50.11 166.82 C 47.72 170.94 55.97 170.94 54.24 166.82 C 52.5 162.69 57 165.15 60 165 C 63 164.85 67.04 162.66 65.1 166.78 C 63.16 170.91 71.41 170.91 69.23 166.78 C 67.04 162.66 72 165.13 75 165 C 78 164.87 82.51 167.32 80.77 163.2 C 79.03 159.07 87.28 159.07 84.9 163.2 C 82.51 167.32 87 164.79 90 165 C 93 165.21 97.06 167.31 95.21 163.18 C 93.35 159.06 101.6 159.06 99.33 163.18 C 97.06 167.31 102 164.82 105 165 C 108 165.18 112.42 163.18 110.45 167.31 C 108.47 171.43 116.72 171.43 114.57 167.31 C 112.42 163.18 117 164.68 120 165 C 123 165.32 128 167.31 125.68 163.19 C 123.36 159.06 131.61 159.06 129.8 163.19 C 128 167.31 132 164.79 135 165 C 138 165.21 142.47 166.81 140.44 162.68 C 138.41 158.56 146.66 158.56 144.57 162.68 C 142.47 166.81 147 164.67 150 165 C 153 165.33 156.87 163.02 155.12 167.14 C 153.38 171.27 161.63 171.27 159.25 167.14 C 156.87 163.02 162 165.33 165 165 C 168 164.67 172.33 167.04 170.12 162.91 C 167.92 158.79 176.17 158.79 174.25 162.91 C 172.33 167.04 177 164.68 180 165 C 183 165.32 187.12 167.25 185.3 163.13 C 183.47 159 191.72 159 189.42 163.13 C 187.12 167.25 192 165.06 195 165 C 198 164.94 202.84 163.31 200.72 167.43 C 198.59 171.56 206.84 171.56 204.84 167.43 C 202.84 163.31 207 164.69 210 165 C 213 165.31 217.33 162.78 215.55 166.9 C 213.77 171.03 222.02 171.03 219.68 166.9 C 217.33 162.78 222 164.82 225 165 M 0,180 C 3 180.12 7.41 181.94 5.14 177.81 C 2.88 173.69 11.13 173.69 9.27 177.81 C 7.41 181.94 12 180.15 15 180 C 18 179.85 22.31 181.75 20.31 177.63 C 18.32 173.5 26.57 173.5 24.44 177.63 C 22.31 181.75 27 180.33 30 180 C 33 179.67 37.28 182.38 35.17 178.26 C 33.05 174.13 41.3 174.13 39.29 178.26 C 37.28 182.38 42 179.92 45 180 C 48 180.08 52.72 181.93 50.67 177.81 C 48.62 173.68 56.87 173.68 54.8 177.81 C 52.72 181.93 57 180.06 60 180 C 63 179.94 67.55 181.84 65.41 177.72 C 63.28 173.59 71.53 173.59 69.54 177.72 C 67.55 181.84 72 179.64 75 180 C 78 180.36 82.37 177.88 80.63 182 C 78.89 186.13 87.14 186.13 84.75 182 C 82.37 177.88 87 180.27 90 180 C 93 179.73 97.63 177.59 95.49 181.72 C 93.35 185.84 101.6 185.84 99.61 181.72 C 97.63 177.59 102 180.29 105 180 C 108 179.71 112.82 177.64 110.6 181.77 C 108.38 185.89 116.63 185.89 114.73 181.77 C 112.82 177.64 117 180.16 120 180 C 123 179.84 127.5 177.71 125.11 181.83 C 122.72 185.96 130.97 185.96 129.24 181.83 C 127.5 177.71 132 179.71 135 180 C 138 180.29 142.8 177.68 140.62 181.8 C 138.44 185.93 146.69 185.93 144.75 181.8 C 142.8 177.68 147 179.75 150 180 C 153 180.25 157.77 181.89 155.68 177.77 C 153.59 173.64 161.84 173.64 159.8 177.77 C 157.77 181.89 162 179.69 165 180 C 168 180.31 172.78 182.27 170.41 178.14 C 168.04 174.02 176.29 174.02 174.53 178.14 C 172.78 182.27 177 179.69 180 180 C 183 180.31 187.32 177.7 185.11 181.82 C 182.91 185.95 191.16 185.95 189.24 181.82 C 187.32 177.7 192 179.9 195 180 C 198 180.1 202.44 177.65 200.64 181.78 C 198.85 185.9 207.1 185.9 204.77 181.78 C 202.44 177.65 207 179.99 210 180 C 213 180.01 217.17 177.69 215.45 181.81 C 213.74 185.94 221.99 185.94 219.58 181.81 C 217.17 177.69 222 179.89 225 180 M 0,195 C 3 195 7.8 192.56 5.5 196.69 C 3.2 200.81 11.45 200.81 9.62 196.69 C 7.8 192.56 12 194.87 15 195 C 18 195.13 22.04 192.98 20.29 197.11 C 18.55 201.23 26.8 201.23 24.42 197.11 C 22.04 192.98 27 194.9 30 195 C 33 195.1 37.49 197.07 35.71 192.94 C 33.93 188.82 42.18 188.82 39.83 192.94 C 37.49 197.07 42 194.96 45 195 C 48 195.04 53.06 196.92 50.8 192.8 C 48.53 188.67 56.78 188.67 54.92 192.8 C 53.06 196.92 57 195.32 60 195 C 63 194.68 66.85 193.22 65.1 197.34 C 63.36 201.47 71.61 201.47 69.23 197.34 C 66.85 193.22 72 194.68 75 195 C 78 195.32 82.99 196.91 80.75 192.79 C 78.51 188.66 86.76 188.66 84.87 192.79 C 82.99 196.91 87 194.71 90 195 C 93 195.29 97.57 192.87 95.61 197 C 93.65 201.12 101.9 201.12 99.74 197 C 97.57 192.87 102 195.22 105 195 C 108 194.78 112.55 193.27 110.35 197.39 C 108.15 201.52 116.4 201.52 114.48 197.39 C 112.55 193.27 117 195.01 120 195 C 123 194.99 127.57 192.86 125.57 196.98 C 123.57 201.11 131.82 201.11 129.69 196.98 C 127.57 192.86 132 194.76 135 195 C 138 195.24 142.75 197.04 140.6 192.92 C 138.46 188.79 146.71 188.79 144.73 192.92 C 142.75 197.04 147 195 150 195 C 153 195 157.86 197.13 155.74 193.01 C 153.62 188.88 161.87 188.88 159.86 193.01 C 157.86 197.13 162 195.15 165 195 C 168 194.85 172.32 197.13 170.53 193.01 C 168.73 188.88 176.98 188.88 174.65 193.01 C 172.32 197.13 177 194.95 180 195 C 183 195.05 188.08 193.02 185.73 197.15 C 183.39 201.27 191.64 201.27 189.86 197.15 C 188.08 193.02 192 194.92 195 195 C 198 195.08 202.52 192.98 200.37 197.11 C 198.22 201.23 206.47 201.23 204.49 197.11 C 202.52 192.98 207 195.19 210 195 C 213 194.81 216.87 192.8 215.11 196.92 C 213.35 201.05 221.6 201.05 219.24 196.92 C 216.87 192.8 222 194.95 225 195 M 0,210 C 3 210.26 7.79 212.36 5.65 208.24 C 3.5 204.11 11.75 204.11 9.77 208.24 C 7.79 212.36 12 210.17 15 210 C 18 209.83 22.53 207.83 20.38 211.95 C 18.22 216.08 26.47 216.08 24.5 211.95 C 22.53 207.83 27 210.31 30 210 C 33 209.69 37.56 211.98 35.76 207.86 C 33.97 203.73 42.22 203.73 39.89 207.86 C 37.56 211.98 42 210.28 45 210 C 48 209.72 52.52 207.61 50.38 211.74 C 48.24 215.86 56.49 215.86 54.5 211.74 C 52.52 207.61 57 210 60 210 C 63 210 67.82 212.3 65.54 208.17 C 63.26 204.05 71.51 204.05 69.67 208.17 C 67.82 212.3 72 209.99 75 210 C 78 210.01 82.44 208.28 80.71 212.41 C 78.97 216.53 87.22 216.53 84.83 212.41 C 82.44 208.28 87 210.03 90 210 C 93 209.97 97.45 212.02 95.56 207.9 C 93.67 203.77 101.92 203.77 99.69 207.9 C 97.45 212.02 102 210 105 210 C 108 210 112.09 212.34 110.38 208.21 C 108.68 204.09 116.93 204.09 114.51 208.21 C 112.09 212.34 117 209.72 120 210 C 123 210.28 127.07 211.7 125.09 207.58 C 123.11 203.45 131.36 203.45 129.22 207.58 C 127.07 211.7 132 209.87 135 210 C 138 210.13 142.51 212.16 140.28 208.03 C 138.05 203.91 146.3 203.91 144.41 208.03 C 142.51 212.16 147 210.19 150 210 C 153 209.81 157.91 208.19 155.73 212.32 C 153.56 216.44 161.81 216.44 159.86 212.32 C 157.91 208.19 162 210.32 165 210 C 168 209.68 172.4 207.96 170.53 212.08 C 168.65 216.21 176.9 216.21 174.65 212.08 C 172.4 207.96 177 209.65 180 210 C 183 210.35 187.55 212.39 185.79 208.27 C 184.04 204.14 192.29 204.14 189.92 208.27 C 187.55 212.39 192 209.87 195 210 C 198 210.13 202.64 207.71 200.58 211.84 C 198.52 215.96 206.77 215.96 204.71 211.84 C 202.64 207.71 207 209.68 210 210 C 213 210.32 217.67 212.4 215.74 208.28 C 213.8 204.15 222.05 204.15 219.86 208.28 C 217.67 212.4 222 210.29 225 210 M 15,0 C 14.73 3 12.86 7.67 16.98 5.54 C 21.11 3.41 21.11 11.66 16.98 9.67 C 12.86 7.67 14.71 12 15 15 C 15.29 18 13.09 23.2 17.22 20.79 C 21.34 18.38 21.34 26.63 17.22 24.91 C 13.09 23.2 14.73 27 15 30 C 15.27 33 16.98 37.1 12.85 35.08 C 8.73 33.06 8.73 41.31 12.85 39.21 C 16.98 37.1 14.78 42 15 45 C 15.22 48 13.09 52.92 17.22 50.78 C 21.34 48.65 21.34 56.9 17.22 54.91 C 13.09 52.92 14.98 57 15 60 C 15.02 63 17.12 67.11 12.99 65.26 C 8.87 63.42 8.87 71.67 12.99 69.39 C 17.12 67.11 15.36 72 15 75 C 14.64 78 13.05 82.37 17.17 80.32 C 21.3 78.26 21.3 86.51 17.17 84.44 C 13.05 82.37 14.72 87 15 90 C 15.28 93 17 97.54 12.88 95.67 C 8.75 93.8 8.75 102.05 12.88 99.8 C 17 97.54 15.21 102 15 105 C 14.79 108 12.67 112.34 16.79 110.64 C 20.92 108.94 20.92 117.19 16.79 114.77 C 12.67 112.34 14.63 117 15 120 C 15.37 123 17.2 127.63 13.07 125.66 C 8.95 123.69 8.95 131.94 13.07 129.79 C 17.2 127.63 15.12 132 15 135 C 14.88 138 13.07 142.76 17.19 140.65 C 21.32 138.55 21.32 146.8 17.19 144.78 C 13.07 142.76 14.65 147 15 150 C 15.35 153 17.42 157.84 13.3 155.65 C 9.17 153.47 9.17 161.72 13.3 159.78 C 17.42 157.84 15.1 162 15 165 C 14.9 168 12.83 172.93 16.95 170.49 C 21.08 168.06 21.08 176.31 16.95 174.62 C 12.83 172.93 15.22 177 15 180 C 14.78 183 16.76 187.52 12.63 185.74 C 8.51 183.96 8.51 192.21 12.63 189.86 C 16.76 187.52 14.63 192 15 195 C 15.37 198 12.75 202.34 16.87 200.51 C 21 198.69 21 206.94 16.87 204.64 C 12.75 202.34 15.28 207 15 210 C 14.72 213 13.27 217.54 17.39 215.45 C 21.52 213.35 21.52 221.6 17.39 219.57 C 13.27 217.54 14.69 222 15 225 M 30,0 C 29.69 3 32 7.53 27.88 5.23 C 23.75 2.92 23.75 11.17 27.88 9.35 C 32 7.53 29.8 12 30 15 C 30.2 18 28.12 22.9 32.25 20.8 C 36.37 18.69 36.37 26.94 32.25 24.92 C 28.12 22.9 29.66 27 30 30 C 30.34 33 28.11 37.11 32.23 35.38 C 36.36 33.65 36.36 41.9 32.23 39.5 C 28.11 37.11 30.27 42 30 45 C 29.73 48 28.1 52.67 32.22 50.75 C 36.35 48.83 36.35 57.08 32.22 54.87 C 28.1 52.67 29.7 57 30 60 C 30.3 63 27.99 67.55 32.12 65.43 C 36.24 63.32 36.24 71.57 32.12 69.56 C 27.99 67.55 30.05 72 30 75 C 29.95 78 27.57 82.19 31.7 80.45 C 35.82 78.71 35.82 86.96 31.7 84.57 C 27.57 82.19 30.09 87 30 90 C 29.91 93 27.68 97.57 31.8 95.43 C 35.93 93.29 35.93 101.54 31.8 99.55 C 27.68 97.57 29.81 102 30 105 C 30.19 108 28.01 111.98 32.14 110.06 C 36.26 108.15 36.26 116.4 32.14 114.19 C 28.01 111.98 30.29 117 30 120 C 29.71 123 27.98 127.48 32.11 125.21 C 36.23 122.94 36.23 131.19 32.11 129.33 C 27.98 127.48 30.05 132 30 135 C 29.95 138 32.38 142.28 28.25 140.57 C 24.13 138.86 24.13 147.11 28.25 144.69 C 32.38 142.28 30.15 147 30 150 C 29.85 153 31.86 157.11 27.73 155.28 C 23.61 153.45 23.61 161.7 27.73 159.41 C 31.86 157.11 30.27 162 30 165 C 29.73 168 32.07 172.81 27.95 170.47 C 23.82 168.14 23.82 176.39 27.95 174.6 C 32.07 172.81 29.63 177 30 180 C 30.37 183 32.19 187.37 28.07 185.58 C 23.94 183.79 23.94 192.04 28.07 189.7 C 32.19 187.37 29.85 192 30 195 C 30.15 198 28.3 202.73 32.42 200.51 C 36.55 198.28 36.55 206.53 32.42 204.63 C 28.3 202.73 29.92 207 30 210 C 30.08 213 31.79 217.76 27.66 215.68 C 23.54 213.6 23.54 221.85 27.66 219.8 C 31.79 217.76 29.76 222 30 225 M 45,0 C 45.03 3 42.99 7.47 47.11 5.36 C 51.24 3.25 51.24 11.5 47.11 9.48 C 42.99 7.47 45.3 12 45 15 C 44.7 18 43.26 22.34 47.38 20.36 C 51.51 18.38 51.51 26.63 47.38 24.49 C 43.26 22.34 44.82 27 45 30 C 45.18 33 43.02 37.51 47.15 35.54 C 51.27 33.56 51.27 41.81 47.15 39.66 C 43.02 37.51 45.32 42 45 45 C 44.68 48 43.02 52.35 47.14 50.21 C 51.27 48.07 51.27 56.32 47.14 54.33 C 43.02 52.35 45 57 45 60 C 45 63 46.77 67.87 42.65 65.63 C 38.52 63.39 38.52 71.64 42.65 69.76 C 46.77 67.87 45.11 72 45 75 C 44.89 78 42.58 82.45 46.7 80.57 C 50.83 78.7 50.83 86.95 46.7 84.7 C 42.58 82.45 45.28 87 45 90 C 44.72 93 42.96 97.27 47.09 95.36 C 51.21 93.46 51.21 101.71 47.09 99.49 C 42.96 97.27 44.92 102 45 105 C 45.08 108 47.1 112.38 42.97 110.34 C 38.85 108.3 38.85 116.55 42.97 114.47 C 47.1 112.38 45.23 117 45 120 C 44.77 123 46.77 127.19 42.65 125.33 C 38.52 123.47 38.52 131.72 42.65 129.45 C 46.77 127.19 44.76 132 45 135 C 45.24 138 47.35 142.24 43.23 140.46 C 39.1 138.68 39.1 146.93 43.23 144.59 C 47.35 142.24 44.68 147 45 150 C 45.32 153 47.25 157.72 43.13 155.81 C 39 153.9 39 162.15 43.13 159.94 C 47.25 157.72 44.77 162 45 165 C 45.23 168 47.32 172.32 43.19 170.2 C 39.07 168.07 39.07 176.32 43.19 174.32 C 47.32 172.32 45 177 45 180 C 45 183 42.57 187.67 46.7 185.55 C 50.82 183.42 50.82 191.67 46.7 189.67 C 42.57 187.67 45.29 192 45 195 C 44.71 198 42.86 202.85 46.98 200.59 C 51.11 198.32 51.11 206.57 46.98 204.71 C 42.86 202.85 44.79 207 45 210 C 45.21 213 47.09 217.11 42.97 215.09 C 38.84 213.06 38.84 221.31 42.97 219.21 C 47.09 217.11 45.17 222 45 225 M 60,0 C 59.79 3 58.21 7.36 62.34 5.17 C 66.46 2.97 66.46 11.22 62.34 9.29 C 58.21 7.36 60.16 12 60 15 C 59.84 18 62.03 21.89 57.9 20.14 C 53.78 18.4 53.78 26.65 57.9 24.27 C 62.03 21.89 59.83 27 60 30 C 60.17 33 62.37 38.18 58.25 35.75 C 54.12 33.32 54.12 41.57 58.25 39.87 C 62.37 38.18 59.8 42 60 45 C 60.2 48 57.8 52.38 61.93 50.63 C 66.05 48.88 66.05 57.13 61.93 54.76 C 57.8 52.38 59.66 57 60 60 C 60.34 63 61.75 67.56 57.62 65.23 C 53.5 62.9 53.5 71.15 57.62 69.36 C 61.75 67.56 60.16 72 60 75 C 59.84 78 58.14 83.09 62.26 80.65 C 66.39 78.22 66.39 86.47 62.26 84.78 C 58.14 83.09 59.95 87 60 90 C 60.05 93 62.34 97.56 58.22 95.8 C 54.09 94.04 54.09 102.29 58.22 99.92 C 62.34 97.56 59.86 102 60 105 C 60.14 108 62.23 112.37 58.1 110.32 C 53.98 108.27 53.98 116.52 58.1 114.45 C 62.23 112.37 60 117 60 120 C 60 123 58.3 127.31 62.42 125.55 C 66.55 123.78 66.55 132.03 62.42 129.67 C 58.3 127.31 60.1 132 60 135 C 59.9 138 61.81 143.12 57.69 140.73 C 53.56 138.35 53.56 146.6 57.69 144.86 C 61.81 143.12 60.27 147 60 150 C 59.73 153 58 157.1 62.13 155.34 C 66.25 153.58 66.25 161.83 62.13 159.46 C 58 157.1 59.84 162 60 165 C 60.16 168 57.58 172.38 61.7 170.54 C 65.83 168.7 65.83 176.95 61.7 174.67 C 57.58 172.38 59.8 177 60 180 C 60.2 183 62.41 187.66 58.28 185.78 C 54.16 183.91 54.16 192.16 58.28 189.91 C 62.41 187.66 59.77 192 60 195 C 60.23 198 62.04 202.43 57.92 200.3 C 53.79 198.17 53.79 206.42 57.92 204.43 C 62.04 202.43 59.84 207 60 210 C 60.16 213 57.74 217.08 61.86 215.35 C 65.99 213.61 65.99 221.86 61.86 219.47 C 57.74 217.08 59.91 222 60 225 M 75,0 C 74.93 3 72.78 7.95 76.9 5.77 C 81.03 3.59 81.03 11.84 76.9 9.89 C 72.78 7.95 74.82 12 75 15 C 75.18 18 77.25 22.42 73.12 20.13 C 69 17.84 69 26.09 73.12 24.26 C 77.25 22.42 75.19 27 75 30 C 74.81 33 73.08 37.24 77.2 35.08 C 81.33 32.91 81.33 41.16 77.2 39.2 C 73.08 37.24 74.84 42 75 45 C 75.16 48 73.22 52.42 77.35 50.51 C 81.47 48.59 81.47 56.84 77.35 54.63 C 73.22 52.42 75.1 57 75 60 C 74.9 63 77.25 67.58 73.12 65.27 C 69 62.95 69 71.2 73.12 69.39 C 77.25 67.58 74.81 72 75 75 C 75.19 78 76.95 82.54 72.82 80.68 C 68.7 78.82 68.7 87.07 72.82 84.81 C 76.95 82.54 74.88 87 75 90 C 75.12 93 72.65 97.66 76.77 95.52 C 80.9 93.37 80.9 101.62 76.77 99.64 C 72.65 97.66 75.12 102 75 105 C 74.88 108 73.16 112.19 77.29 110.5 C 81.41 108.81 81.41 117.06 77.29 114.63 C 73.16 112.19 75.34 117 75 120 C 74.66 123 72.63 127.43 76.76 125.58 C 80.88 123.73 80.88 131.98 76.76 129.7 C 72.63 127.43 74.82 132 75 135 C 75.18 138 72.82 142.8 76.94 140.74 C 81.07 138.69 81.07 146.94 76.94 144.87 C 72.82 142.8 74.86 147 75 150 C 75.14 153 73.15 158.11 77.27 155.78 C 81.4 153.45 81.4 161.7 77.27 159.9 C 73.15 158.11 74.65 162 75 165 C 75.35 168 77.14 172.42 73.02 170.5 C 68.89 168.57 68.89 176.82 73.02 174.62 C 77.14 172.42 74.82 177 75 180 C 75.18 183 73.3 187.18 77.42 185.4 C 81.55 183.62 81.55 191.87 77.42 189.52 C 73.3 187.18 75.11 192 75 195 C 74.89 198 77.15 202.45 73.03 200.22 C 68.9 197.99 68.9 206.24 73.03 204.35 C 77.15 202.45 74.86 207 75 210 C 75.14 213 77.07 217.78 72.94 215.42 C 68.82 213.06 68.82 221.31 72.94 219.55 C 77.07 217.78 74.95 222 75 225 M 90,0 C 90.37 3 88.24 7.85 92.37 5.76 C 96.49 3.66 96.49 11.91 92.37 9.88 C 88.24 7.85 90.32 12 90 15 C 89.68 18 92.18 22.58 88.05 20.25 C 83.93 17.92 83.93 26.17 88.05 24.37 C 92.18 22.58 90.12 27 90 30 C 89.88 33 88.31 37.4 92.43 35.28 C 96.56 33.15 96.56 41.4 92.43 39.4 C 88.31 37.4 90.21 42 90 45 C 89.79 48 92.44 52.86 88.31 50.57 C 84.19 48.28 84.19 56.53 88.31 54.7 C 92.44 52.86 89.73 57 90 60 C 90.27 63 92.22 67.65 88.09 65.41 C 83.97 63.17 83.97 71.42 88.09 69.53 C 92.22 67.65 89.64 72 90 75 C 90.36 78 87.78 82.02 91.9 80.19 C 96.03 78.36 96.03 86.61 91.9 84.31 C 87.78 82.02 89.67 87 90 90 C 90.33 93 87.92 97.6 92.05 95.73 C 96.17 93.86 96.17 102.11 92.05 99.86 C 87.92 97.6 89.83 102 90 105 C 90.17 108 91.72 113.22 87.59 110.81 C 83.47 108.39 83.47 116.64 87.59 114.93 C 91.72 113.22 90.23 117 90 120 C 89.77 123 91.8 127.04 87.68 125.13 C 83.55 123.22 83.55 131.47 87.68 129.25 C 91.8 127.04 89.85 132 90 135 C 90.15 138 92.22 142.86 88.09 140.74 C 83.97 138.61 83.97 146.86 88.09 144.86 C 92.22 142.86 89.77 147 90 150 C 90.23 153 92.17 157.61 88.04 155.49 C 83.92 153.38 83.92 161.63 88.04 159.62 C 92.17 157.61 89.83 162 90 165 C 90.17 168 92.29 172.87 88.17 170.6 C 84.04 168.33 84.04 176.58 88.17 174.73 C 92.29 172.87 89.63 177 90 180 C 90.37 183 92.07 187.29 87.94 185.17 C 83.82 183.05 83.82 191.3 87.94 189.29 C 92.07 187.29 90.27 192 90 195 C 89.73 198 92.23 202.68 88.1 200.65 C 83.98 198.61 83.98 206.86 88.1 204.77 C 92.23 202.68 90.01 207 90 210 C 89.99 213 91.7 217.94 87.57 215.7 C 83.45 213.45 83.45 221.7 87.57 219.82 C 91.7 217.94 90.1 222 90 225 M 105,0 C 104.7 3 103.3 7.7 107.43 5.38 C 111.55 3.07 111.55 11.32 107.43 9.51 C 103.3 7.7 104.72 12 105 15 C 105.28 18 107.24 22.74 103.11 20.41 C 98.99 18.09 98.99 26.34 103.11 24.54 C 107.24 22.74 104.67 27 105 30 C 105.33 33 103.14 37.71 107.27 35.52 C 111.39 33.32 111.39 41.57 107.27 39.64 C 103.14 37.71 104.63 42 105 45 C 105.37 48 107.2 52.51 103.07 50.48 C 98.95 48.45 98.95 56.7 103.07 54.6 C 107.2 52.51 105 57 105 60 C 105 63 102.71 68.05 106.84 65.79 C 110.96 63.53 110.96 71.78 106.84 69.91 C 102.71 68.05 104.94 72 105 75 C 105.06 78 102.73 82.43 106.85 80.65 C 110.98 78.88 110.98 87.13 106.85 84.78 C 102.73 82.43 104.74 87 105 90 C 105.26 93 107.15 97.52 103.02 95.73 C 98.9 93.93 98.9 102.18 103.02 99.85 C 107.15 97.52 105.12 102 105 105 C 104.88 108 103.12 112.59 107.24 110.21 C 111.37 107.83 111.37 116.08 107.24 114.33 C 103.12 112.59 104.86 117 105 120 C 105.14 123 106.94 127.73 102.82 125.6 C 98.69 123.46 98.69 131.71 102.82 129.72 C 106.94 127.73 104.96 132 105 135 C 105.04 138 106.81 142.74 102.69 140.56 C 98.56 138.38 98.56 146.63 102.69 144.68 C 106.81 142.74 104.88 147 105 150 C 105.12 153 106.72 157.52 102.59 155.79 C 98.47 154.06 98.47 162.31 102.59 159.92 C 106.72 157.52 105.02 162 105 165 C 104.98 168 107.34 172.87 103.21 170.67 C 99.09 168.47 99.09 176.72 103.21 174.79 C 107.34 172.87 104.92 177 105 180 C 105.08 183 103.14 187.09 107.27 185.14 C 111.39 183.19 111.39 191.44 107.27 189.26 C 103.14 187.09 104.93 192 105 195 C 105.07 198 103.25 202.68 107.37 200.41 C 111.5 198.14 111.5 206.39 107.37 204.54 C 103.25 202.68 105 207 105 210 C 105 213 106.96 217.65 102.84 215.7 C 98.71 213.74 98.71 221.99 102.84 219.82 C 106.96 217.65 105.34 222 105 225 M 120,0 C 120.1 3 117.9 7.78 122.03 5.7 C 126.15 3.61 126.15 11.86 122.03 9.82 C 117.9 7.78 119.86 12 120 15 C 120.14 18 121.87 21.87 117.74 20.08 C 113.62 18.3 113.62 26.55 117.74 24.21 C 121.87 21.87 120.17 27 120 30 C 119.83 33 122.25 37.54 118.13 35.53 C 114 33.52 114 41.77 118.13 39.66 C 122.25 37.54 119.73 42 120 45 C 120.27 48 118.19 52.33 122.31 50.25 C 126.44 48.17 126.44 56.42 122.31 54.37 C 118.19 52.33 120.28 57 120 60 C 119.72 63 117.87 67.78 121.99 65.56 C 126.12 63.35 126.12 71.6 121.99 69.69 C 117.87 67.78 119.64 72 120 75 C 120.36 78 122.34 82.07 118.22 80.29 C 114.09 78.51 114.09 86.76 118.22 84.42 C 122.34 82.07 119.8 87 120 90 C 120.2 93 118.18 97.54 122.31 95.2 C 126.43 92.87 126.43 101.12 122.31 99.33 C 118.18 97.54 119.67 102 120 105 C 120.33 108 117.69 112.4 121.82 110.33 C 125.94 108.27 125.94 116.52 121.82 114.46 C 117.69 112.4 120.15 117 120 120 C 119.85 123 122.23 127.07 118.1 125.22 C 113.98 123.38 113.98 131.63 118.1 129.35 C 122.23 127.07 120.27 132 120 135 C 119.73 138 117.62 142.71 121.74 140.43 C 125.87 138.14 125.87 146.39 121.74 144.55 C 117.62 142.71 119.79 147 120 150 C 120.21 153 117.93 158.1 122.05 155.77 C 126.18 153.44 126.18 161.69 122.05 159.89 C 117.93 158.1 119.76 162 120 165 C 120.24 168 122.28 172.65 118.15 170.23 C 114.03 167.81 114.03 176.06 118.15 174.35 C 122.28 172.65 119.83 177 120 180 C 120.17 183 122.2 187.69 118.08 185.29 C 113.95 182.88 113.95 191.13 118.08 189.41 C 122.2 187.69 119.84 192 120 195 C 120.16 198 118.17 201.78 122.3 200.08 C 126.42 198.37 126.42 206.62 122.3 204.2 C 118.17 201.78 120.14 207 120 210 C 119.86 213 117.68 217.07 121.8 215.3 C 125.93 213.54 125.93 221.79 121.8 219.43 C 117.68 217.07 119.76 222 120 225 M 135,0 C 134.71 3 132.7 7.71 136.82 5.57 C 140.95 3.42 140.95 11.67 136.82 9.69 C 132.7 7.71 135.09 12 135 15 C 134.91 18 137.36 22.72 133.23 20.56 C 129.11 18.39 129.11 26.64 133.23 24.68 C 137.36 22.72 135.03 27 135 30 C 134.97 33 132.76 37.58 136.88 35.19 C 141.01 32.79 141.01 41.04 136.88 39.31 C 132.76 37.58 134.7 42 135 45 C 135.3 48 137.05 52.6 132.92 50.4 C 128.8 48.2 128.8 56.45 132.92 54.53 C 137.05 52.6 134.98 57 135 60 C 135.02 63 137.07 67.7 132.94 65.34 C 128.82 62.98 128.82 71.23 132.94 69.46 C 137.07 67.7 134.74 72 135 75 C 135.26 78 133.23 82.37 137.36 80.1 C 141.48 77.83 141.48 86.08 137.36 84.22 C 133.23 82.37 134.98 87 135 90 C 135.02 93 137.27 97.22 133.15 95.1 C 129.02 92.97 129.02 101.22 133.15 99.22 C 137.27 97.22 135.34 102 135 105 C 134.66 108 137.29 112.81 133.16 110.4 C 129.04 107.98 129.04 116.23 133.16 114.52 C 137.29 112.81 135.26 117 135 120 C 134.74 123 133.3 127.51 137.43 125.4 C 141.55 123.28 141.55 131.53 137.43 129.52 C 133.3 127.51 135.1 132 135 135 C 134.9 138 137.35 142.24 133.22 140.52 C 129.1 138.8 129.1 147.05 133.22 144.65 C 137.35 142.24 134.7 147 135 150 C 135.3 153 137.02 157.25 132.89 155.23 C 128.77 153.21 128.77 161.46 132.89 159.36 C 137.02 157.25 135.37 162 135 165 C 134.63 168 132.84 172.5 136.96 170.62 C 141.09 168.74 141.09 176.99 136.96 174.75 C 132.84 172.5 134.98 177 135 180 C 135.02 183 133.06 187.57 137.19 185.78 C 141.31 183.99 141.31 192.24 137.19 189.9 C 133.06 187.57 134.91 192 135 195 C 135.09 198 132.85 202.5 136.97 200.49 C 141.1 198.48 141.1 206.73 136.97 204.62 C 132.85 202.5 134.84 207 135 210 C 135.16 213 132.57 217.89 136.7 215.61 C 140.82 213.33 140.82 221.58 136.7 219.73 C 132.57 217.89 135.34 222 135 225 M 150,0 C 149.79 3 147.69 7.6 151.81 5.26 C 155.94 2.92 155.94 11.17 151.81 9.39 C 147.69 7.6 150.16 12 150 15 C 149.84 18 148.22 22.8 152.35 20.57 C 156.47 18.35 156.47 26.6 152.35 24.7 C 148.22 22.8 149.64 27 150 30 C 150.36 33 152.27 37.24 148.14 35.42 C 144.02 33.6 144.02 41.85 148.14 39.55 C 152.27 37.24 150.02 42 150 45 C 149.98 48 152.09 52.42 147.96 50.43 C 143.84 48.43 143.84 56.68 147.96 54.55 C 152.09 52.42 149.91 57 150 60 C 150.09 63 147.72 67.73 151.85 65.38 C 155.97 63.03 155.97 71.28 151.85 69.51 C 147.72 67.73 149.99 72 150 75 C 150.01 78 151.86 82.61 147.74 80.81 C 143.61 79 143.61 87.25 147.74 84.93 C 151.86 82.61 150.36 87 150 90 C 149.64 93 152.17 96.88 148.04 95.07 C 143.92 93.26 143.92 101.51 148.04 99.2 C 152.17 96.88 150.19 102 150 105 C 149.81 108 151.74 113.21 147.62 110.8 C 143.49 108.4 143.49 116.65 147.62 114.93 C 151.74 113.21 150.15 117 150 120 C 149.85 123 152.04 127.07 147.92 125.3 C 143.79 123.54 143.79 131.79 147.92 129.43 C 152.04 127.07 149.84 132 150 135 C 150.16 138 147.59 142.39 151.72 140.13 C 155.84 137.88 155.84 146.13 151.72 144.26 C 147.59 142.39 149.79 147 150 150 C 150.21 153 147.99 157.64 152.11 155.61 C 156.24 153.57 156.24 161.82 152.11 159.73 C 147.99 157.64 150.36 162 150 165 C 149.64 168 152.34 173 148.22 170.7 C 144.09 168.39 144.09 176.64 148.22 174.82 C 152.34 173 149.9 177 150 180 C 150.1 183 152.25 187.83 148.13 185.52 C 144 183.22 144 191.47 148.13 189.65 C 152.25 187.83 149.67 192 150 195 C 150.33 198 151.84 201.96 147.72 200.2 C 143.59 198.44 143.59 206.69 147.72 204.33 C 151.84 201.96 150.14 207 150 210 C 149.86 213 148.05 217.43 152.17 215.08 C 156.3 212.72 156.3 220.97 152.17 219.2 C 148.05 217.43 150.13 222 150 225 M 165,0 C 164.69 3 163.15 7.51 167.28 5.61 C 171.4 3.7 171.4 11.95 167.28 9.73 C 163.15 7.51 165.35 12 165 15 C 164.65 18 162.64 22.37 166.76 20.35 C 170.89 18.33 170.89 26.58 166.76 24.48 C 162.64 22.37 165.33 27 165 30 C 164.67 33 162.96 37.72 167.08 35.52 C 171.21 33.32 171.21 41.57 167.08 39.65 C 162.96 37.72 164.72 42 165 45 C 165.28 48 162.89 52.84 167.02 50.8 C 171.14 48.75 171.14 57 167.02 54.92 C 162.89 52.84 165.17 57 165 60 C 164.83 63 163.19 67.67 167.31 65.26 C 171.44 62.85 171.44 71.1 167.31 69.38 C 163.19 67.67 164.99 72 165 75 C 165.01 78 167.41 82.62 163.29 80.28 C 159.16 77.95 159.16 86.2 163.29 84.41 C 167.41 82.62 165.04 87 165 90 C 164.96 93 166.79 97.53 162.67 95.65 C 158.54 93.77 158.54 102.02 162.67 99.77 C 166.79 97.53 165.27 102 165 105 C 164.73 108 167.05 112.65 162.93 110.23 C 158.8 107.81 158.8 116.06 162.93 114.36 C 167.05 112.65 165.05 117 165 120 C 164.95 123 162.64 127.21 166.76 125.44 C 170.89 123.66 170.89 131.91 166.76 129.56 C 162.64 127.21 165.01 132 165 135 C 164.99 138 162.79 142.44 166.91 140.47 C 171.04 138.49 171.04 146.74 166.91 144.59 C 162.79 142.44 164.9 147 165 150 C 165.1 153 167.26 157.43 163.13 155.2 C 159.01 152.96 159.01 161.21 163.13 159.32 C 167.26 157.43 164.66 162 165 165 C 165.34 168 162.92 172.51 167.05 170.79 C 171.17 169.07 171.17 177.32 167.05 174.91 C 162.92 172.51 165.3 177 165 180 C 164.7 183 167.4 188.11 163.27 185.8 C 159.15 183.49 159.15 191.74 163.27 189.93 C 167.4 188.11 165.26 192 165 195 C 164.74 198 167.06 202.24 162.93 200.46 C 158.81 198.68 158.81 206.93 162.93 204.58 C 167.06 202.24 165.21 207 165 210 C 164.79 213 167.3 217.24 163.18 215.52 C 159.05 213.8 159.05 222.05 163.18 219.65 C 167.3 217.24 165.23 222 165 225 M 180,0 C 179.68 3 177.8 6.95 181.93 5.27 C 186.05 3.58 186.05 11.83 181.93 9.39 C 177.8 6.95 179.85 12 180 15 C 180.15 18 182.4 22.29 178.27 20.13 C 174.15 17.98 174.15 26.23 178.27 24.26 C 182.4 22.29 179.98 27 180 30 C 180.02 33 182.4 37.77 178.27 35.51 C 174.15 33.25 174.15 41.5 178.27 39.64 C 182.4 37.77 179.71 42 180 45 C 180.29 48 181.84 52.83 177.71 50.41 C 173.59 47.98 173.59 56.23 177.71 54.53 C 181.84 52.83 179.98 57 180 60 C 180.02 63 182.15 67.36 178.03 65.37 C 173.9 63.39 173.9 71.64 178.03 69.5 C 182.15 67.36 179.87 72 180 75 C 180.13 78 182.35 82.06 178.22 80.14 C 174.1 78.23 174.1 86.48 178.22 84.27 C 182.35 82.06 179.81 87 180 90 C 180.19 93 177.79 97.78 181.92 95.46 C 186.04 93.13 186.04 101.38 181.92 99.58 C 177.79 97.78 180.11 102 180 105 C 179.89 108 181.86 112.02 177.74 110.09 C 173.61 108.17 173.61 116.42 177.74 114.22 C 181.86 112.02 180.26 117 180 120 C 179.74 123 182.36 127.13 178.24 125.08 C 174.11 123.02 174.11 131.27 178.24 129.2 C 182.36 127.13 179.96 132 180 135 C 180.04 138 178.17 142.49 182.29 140.09 C 186.42 137.69 186.42 145.94 182.29 144.22 C 178.17 142.49 179.76 147 180 150 C 180.24 153 178.04 157.34 182.16 155.11 C 186.29 152.88 186.29 161.13 182.16 159.23 C 178.04 157.34 179.73 162 180 165 C 180.27 168 181.83 172.11 177.7 170.29 C 173.58 168.48 173.58 176.73 177.7 174.42 C 181.83 172.11 180.31 177 180 180 C 179.69 183 178 187.39 182.12 185.54 C 186.25 183.7 186.25 191.95 182.12 189.67 C 178 187.39 179.93 192 180 195 C 180.07 198 177.85 202.71 181.98 200.6 C 186.1 198.5 186.1 206.75 181.98 204.73 C 177.85 202.71 179.96 207 180 210 C 180.04 213 181.78 217.38 177.65 215.3 C 173.53 213.21 173.53 221.46 177.65 219.42 C 181.78 217.38 180.01 222 180 225 M 195,0 C 194.99 3 196.84 7.14 192.71 5.17 C 188.59 3.2 188.59 11.45 192.71 9.29 C 196.84 7.14 194.79 12 195 15 C 195.21 18 196.85 22.35 192.73 20.46 C 188.6 18.56 188.6 26.81 192.73 24.58 C 196.85 22.35 194.97 27 195 30 C 195.03 33 197.14 37.82 193.01 35.42 C 188.89 33.01 188.89 41.26 193.01 39.54 C 197.14 37.82 195.01 42 195 45 C 194.99 48 192.58 52.34 196.71 50.14 C 200.83 47.95 200.83 56.2 196.71 54.27 C 192.58 52.34 194.74 57 195 60 C 195.26 63 197.4 68.09 193.28 65.8 C 189.15 63.5 189.15 71.75 193.28 69.92 C 197.4 68.09 194.98 72 195 75 C 195.02 78 192.89 82.01 197.02 80.06 C 201.14 78.12 201.14 86.37 197.02 84.19 C 192.89 82.01 195.33 87 195 90 C 194.67 93 197.23 97.29 193.1 95.57 C 188.98 93.85 188.98 102.1 193.1 99.69 C 197.23 97.29 194.87 102 195 105 C 195.13 108 192.59 113 196.72 110.74 C 200.84 108.47 200.84 116.72 196.72 114.86 C 192.59 113 195.02 117 195 120 C 194.98 123 196.91 127.79 192.78 125.77 C 188.66 123.75 188.66 132 192.78 129.89 C 196.91 127.79 194.73 132 195 135 C 195.27 138 196.86 142.36 192.73 140.34 C 188.61 138.32 188.61 146.57 192.73 144.47 C 196.86 142.36 195.34 147 195 150 C 194.66 153 193.23 157.44 197.35 155.16 C 201.48 152.89 201.48 161.14 197.35 159.29 C 193.23 157.44 194.73 162 195 165 C 195.27 168 196.78 172.33 192.66 170.41 C 188.53 168.49 188.53 176.74 192.66 174.53 C 196.78 172.33 194.98 177 195 180 C 195.02 183 196.95 187.41 192.83 185.26 C 188.7 183.1 188.7 191.35 192.83 189.38 C 196.95 187.41 194.97 192 195 195 C 195.03 198 192.91 202.62 197.04 200.55 C 201.16 198.48 201.16 206.73 197.04 204.68 C 192.91 202.62 195.23 207 195 210 C 194.77 213 196.83 217.35 192.71 215.66 C 188.58 213.96 188.58 222.21 192.71 219.78 C 196.83 217.35 195.24 222 195 225 M 210,0 C 209.7 3 208.02 7.88 212.14 5.55 C 216.27 3.22 216.27 11.47 212.14 9.68 C 208.02 7.88 209.74 12 210 15 C 210.26 18 207.89 23.09 212.02 20.78 C 216.14 18.47 216.14 26.72 212.02 24.9 C 207.89 23.09 210.24 27 210 30 C 209.76 33 207.6 37.96 211.73 35.81 C 215.85 33.66 215.85 41.91 211.73 39.93 C 207.6 37.96 210.09 42 210 45 C 209.91 48 208.06 52.53 212.18 50.59 C 216.31 48.65 216.31 56.9 212.18 54.71 C 208.06 52.53 209.95 57 210 60 C 210.05 63 212.22 67.35 208.1 65.42 C 203.97 63.48 203.97 71.73 208.1 69.54 C 212.22 67.35 209.72 72 210 75 C 210.28 78 212.31 83.01 208.18 80.62 C 204.06 78.23 204.06 86.48 208.18 84.75 C 212.31 83.01 209.72 87 210 90 C 210.28 93 207.95 97.9 212.07 95.55 C 216.2 93.2 216.2 101.45 212.07 99.68 C 207.95 97.9 209.93 102 210 105 C 210.07 108 212.39 113.11 208.27 110.78 C 204.14 108.45 204.14 116.7 208.27 114.9 C 212.39 113.11 210.19 117 210 120 C 209.81 123 208.01 127.73 212.14 125.61 C 216.26 123.49 216.26 131.74 212.14 129.73 C 208.01 127.73 210.02 132 210 135 C 209.98 138 208.17 142.48 212.3 140.28 C 216.42 138.07 216.42 146.32 212.3 144.4 C 208.17 142.48 209.96 147 210 150 C 210.04 153 208.06 157.13 212.19 155.39 C 216.31 153.64 216.31 161.89 212.19 159.51 C 208.06 157.13 209.88 162 210 165 C 210.12 168 208.13 172.55 212.26 170.68 C 216.38 168.81 216.38 177.06 212.26 174.81 C 208.13 172.55 209.7 177 210 180 C 210.3 183 208.13 187.06 212.25 185.11 C 216.38 183.15 216.38 191.4 212.25 189.23 C 208.13 187.06 210.2 192 210 195 C 209.8 198 212.34 202.82 208.22 200.45 C 204.09 198.09 204.09 206.34 208.22 204.58 C 212.34 202.82 209.82 207 210 210 C 210.18 213 211.7 217.71 207.58 215.53 C 203.45 213.35 203.45 221.6 207.58 219.65 C 211.7 217.71 209.78 222 210 225 M 2 0 L 223 0 A 2 2 0 0 1 225 2 L 225 223 A 2 2 0 0 1 223 225 L 2 225 A 2 2 0 0 1 0 223 L 0 2 A 2 2 0 0 1 2 0 "></path></svg>